<svg width="82" height="77" viewBox="0 0 82 77" fill="none" xmlns="http://www.w3.org/2000/svg">
<path d="M82 39.4167C82 57.8108 58.2438 77 40.0956 77C21.9473 77 0 64.8386 0 46.4444C0 28.0503 15.0135 0 33.1618 0C51.31 0 82 21.0225 82 39.4167Z" fill="#FFF7F0"/>
<path d="M57.8601 25.7479L58.1041 25.5364L57.806 25.4121C57.6354 25.3411 57.4478 25.3 57.25 25.3H24.7499C24.5521 25.3 24.3645 25.3412 24.194 25.4121L23.8956 25.5362L24.1398 25.7479L40.869 40.2471L41 40.3606L41.131 40.2471L57.8601 25.7479ZM23.631 28.0869L23.3 27.8V28.238V49.2499C23.3 50.0502 23.9499 50.7 24.75 50.7H57.25C58.0501 50.7 58.6999 50.0502 58.7 49.25V28.238V27.8L58.369 28.0869L41.6882 42.5436C41.4902 42.7149 41.2454 42.8 41 42.8C40.7547 42.8 40.5098 42.7149 40.3117 42.5436L23.631 28.0869ZM24.75 23.2H57.25C59.2074 23.2 60.8 24.7926 60.8 26.75V49.25C60.8 51.2075 59.2074 52.8 57.25 52.8H24.75C22.7926 52.8 21.2 51.2075 21.2 49.25V26.75C21.2 24.7926 22.7926 23.2 24.75 23.2Z" fill="#F8903F" stroke="#FFF7F0" stroke-width="0.4"/>
</svg>
